:SAMPLES-PER-SECOND 30
:FULLY-SPECIFIED
:DEGREES
589
root  4.01566 26.5625 -12.749 -150.943 58.9698 49.8541
Spine  8.96379 19.1944 34.7597
Spine1  1.69774 -22.4954 -5.34715
Neck  3.97569e-016 0 -2.38542e-015
Head  -8.4119 8.99489 -4.04701
R_Clavicle  -0.894877 6.0095 -3.18962
R_UpperArm  47.3526 40.3559 -9.50143
R_Forearm  57.6261 -6.02103 7.21398
R_Hand  -53.3779 29.7682 -134.168
L_Clavicle  -0.0450254 3.1026 -0.362757
L_UpperArm  -30.6834 -29.1115 -8.75217
L_Forearm  -53.3553 -0.580926 -2.14366
L_Hand  16.7275 -41.8748 -46.2111
L_Thigh  -23.1402 4.49786 45.5656
L_Calf  11.0612 3.35968 -25.4577
L_Foot  2.35798 -6.29383 25.2291
L_Toe0  7.14111 -1.1033 -0.278593
R_Thigh  -6.48289 -19.0295 43.1457
R_Calf  1.78615 -8.58056 -27.8227
R_Foot  6.81492 18.556 19.2603
R_Toe0  -1.78853 -0.272158 -17.3235
590
root  4.00088 26.099 -11.8807 -142.898 61.3794 69.1978
Spine  10.7227 17.7166 36.7405
Spine1  4.09396 -27.892 -6.10482
Neck  3.97569e-016 0 -2.38542e-015
Head  -6.22114 6.78392 -5.13347
R_Clavicle  -0.962772 5.08077 -3.64793
R_UpperArm  48.9556 37.2311 -2.84027
R_Forearm  54.4391 -3.1882 1.32284
R_Hand  -61.6768 54.7629 -115.971
L_Clavicle  -0.157911 4.90358 0.208946
L_UpperArm  -30.598 -31.0578 -5.2583
L_Forearm  -49.852 0.2613 -2.24929
L_Hand  15.2564 -36.151 -50.4779
L_Thigh  -21.5532 7.60469 46.9551
L_Calf  4.74675 3.75313 -28.7176
L_Foot  2.79083 -6.12737 27.2292
L_Toe0  17.6187 -5.45921 11.5291
R_Thigh  -6.39683 -18.1933 43.588
R_Calf  1.2784 -9.14917 -29.8851
R_Foot  6.85582 18.5664 19.756
R_Toe0  -1.78853 -0.271759 -17.3235
591
root  4.52399 25.3536 -10.8602 -129.379 59.1701 90.8135
Spine  10.0467 14.7022 35.5385
Spine1  4.7368 -26.6391 -5.0965
Neck  3.97569e-016 0 -2.38542e-015
Head  -2.69639 5.75048 -6.04795
R_Clavicle  -0.875288 5.19851 -3.26147
R_UpperArm  35.2894 44.2624 -7.25488
R_Forearm  36.8325 -18.2595 10.1464
R_Hand  -0.125412 52.4921 -16.1364
L_Clavicle  -0.251849 7.97848 0.411122
L_UpperArm  -31.9632 -34.4313 2.07492
L_Forearm  -44.7296 1.44566 -2.67492
L_Hand  15.8613 -37.6884 -49.81
L_Thigh  -18.6208 10.0911 44.2452
L_Calf  -9.62062 4.08585 -31.5399
L_Foot  2.44985 -7.80711 30.7661
L_Toe0  11.6957 -5.63792 18.2363
R_Thigh  -5.75406 -18.3733 42.9103
R_Calf  2.13871 -10.741 -35.9389
R_Foot  6.59097 17.9455 20.5974
R_Toe0  -1.78853 -0.271293 -17.3236
592
root  5.53784 24.6794 -9.93423 -116.628 53.3453 107.768
Spine  7.83082 12.2191 33.5987
Spine1  3.70478 -23.0301 -4.94934
Neck  3.97569e-016 0 -2.38542e-015
Head  0.651191 6.81508 -6.77196
R_Clavicle  -0.933252 5.54526 -3.43363
R_UpperArm  10.9438 45.0252 -15.1946
R_Forearm  34.3863 -22.1257 18.8532
R_Hand  0.335934 15.1621 -11.2168
L_Clavicle  -0.315612 10.2298 0.597941
L_UpperArm  -35.4801 -34.66 11.0859
L_Forearm  -37.9702 1.98052 -2.59073
L_Hand  15.3716 -38.6899 -47.0145
L_Thigh  -14.4658 12.8441 38.4172
L_Calf  -23.6552 4.35418 -33.8734
L_Foot  0.554592 -12.052 35.3804
L_Toe0  1.02167 -1.36619 21.056
R_Thigh  -4.50673 -18.2666 41.1055
R_Calf  3.65769 -12.4963 -43.2924
R_Foot  5.96444 16.673 21.3818
R_Toe0  -1.78853 -0.270775 -17.3236
593
root  6.80785 24.3825 -9.28228 -106.801 46.7127 117.888
Spine  4.44952 9.78828 31.6873
Spine1  1.45014 -18.2804 -6.86952
Neck  3.97569e-016 0 -2.38542e-015
Head  3.32245 9.40751 -8.85585
R_Clavicle  -0.992052 4.90501 -3.80261
R_UpperArm  19.7764 34.6499 -5.50589
R_Forearm  27.1457 -2.41368 2.07404
R_Hand  1.54972 15.4319 -6.4599
L_Clavicle  -0.289805 11.0809 -0.449666
L_UpperArm  -40.8599 -32.0811 21.8446
L_Forearm  -30.4549 2.06621 -1.50496
L_Hand  14.1903 -37.7071 -45.0722
L_Thigh  -7.78896 16.1746 33.0235
L_Calf  -25.9181 4.66612 -36.6917
L_Foot  -1.44584 -15.6336 38.9479
L_Toe0  -1.25649 0.034886 18.5265
R_Thigh  -1.57765 -16.1973 39.36
R_Calf  4.37692 -13.8046 -49.4743
R_Foot  5.52067 15.742 22.5418
R_Toe0  -1.78853 -0.270224 -17.3236
594
root  8.19242 24.5199 -8.9224 -98.4551 40.1455 122.505
Spine  -0.596589 5.63291 30.487
Spine1  -2.23146 -11.4505 -10.0383
Neck  3.97569e-016 0 -2.38542e-015
Head  5.1746 13.311 -11.9191
R_Clavicle  -0.792714 1.57135 -3.70463
R_UpperArm  22.1603 25.7953 -1.36818
R_Forearm  22.5058 10.0837 -8.52327
R_Hand  1.88757 15.805 -5.08265
L_Clavicle  -0.22885 11.5978 -2.45078
L_UpperArm  -47.4338 -30.1293 36.8808
L_Forearm  -26.9444 1.68097 -2.59125
L_Hand  15.7047 -43.1083 -41.6062
L_Thigh  -0.081295 18.8977 29.7552
L_Calf  -17.1535 4.9069 -38.9572
L_Foot  -1.21905 -15.4408 40.3907
L_Toe0  2.0297 -1.49255 18.3835
R_Thigh  2.66243 -12.2507 38.7577
R_Calf  4.27534 -14.3669 -52.388
R_Foot  5.4898 15.6433 23.1111
R_Toe0  -1.78853 -0.269654 -17.3236
595
root  9.64243 25.0212 -8.86578 -90.2618 33.0968 123.052
Spine  -6.84614 -0.913407 30.9812
Spine1  -6.74412 -2.32478 -12.0722
Neck  3.97569e-016 0 -2.38542e-015
Head  5.74122 16.8221 -14.0139
R_Clavicle  -0.238523 -3.71628 -1.81198
R_UpperArm  21.1593 20.0462 0.245611
R_Forearm  18.2332 15.944 -13.7565
R_Hand  1.76125 15.277 -5.33581
L_Clavicle  -0.0115879 10.1004 -5.16423
L_UpperArm  -53.3581 -28.8662 51.594
L_Forearm  -25.2551 2.16099 -4.48099
L_Hand  8.23714 -53.9003 -18.1293
L_Thigh  5.5153 20.3523 27.7311
L_Calf  -7.20565 4.81321 -38.1068
L_Foot  1.0241 -11.9562 38.7091
L_Toe0  3.68926 -2.36428 19.4399
R_Thigh  6.48257 -8.32305 39.218
R_Calf  3.64753 -13.9118 -49.9998
R_Foot  5.6889 16.1055 21.9844
R_Toe0  -1.78853 -0.269083 -17.3236
